<?xml version="1.0" standalone="no"?><!DOCTYPE svg PUBLIC "-//W3C//DTD SVG 1.1//EN" "http://www.w3.org/Graphics/SVG/1.1/DTD/svg11.dtd"><svg t="1711865685325" class="icon" viewBox="0 0 1024 1024" version="1.1" xmlns="http://www.w3.org/2000/svg" p-id="6231" width="64" height="64" xmlns:xlink="http://www.w3.org/1999/xlink"><path d="M554.666667 682.922667l298.666666-2.005334V255.658667l-220.586666 0.298666-77.397334 77.397334L554.666667 682.922667z m-85.333334-349.568L391.637333 257.621333 170.666667 256.128v424.789333l298.666666 2.005334V333.354667z m-42.666666-160.853334L512 256l85.333333-85.333333 255.872-0.341334A85.333333 85.333333 0 0 1 938.666667 255.530667v425.386666a85.333333 85.333333 0 0 1-84.736 85.333334L597.333333 768l-85.162666 85.333333L426.666667 768l-256.597334-1.749333a85.333333 85.333333 0 0 1-84.736-85.333334V256.128a85.333333 85.333333 0 0 1 85.333334-85.333333l256 1.706666z" fill="#000000" p-id="6232"></path></svg>