<?xml version="1.0" standalone="no"?><!DOCTYPE svg PUBLIC "-//W3C//DTD SVG 1.1//EN" "http://www.w3.org/Graphics/SVG/1.1/DTD/svg11.dtd"><svg t="1711867156617" class="icon" viewBox="0 0 1024 1024" version="1.1" xmlns="http://www.w3.org/2000/svg" p-id="9776" xmlns:xlink="http://www.w3.org/1999/xlink" width="64" height="64"><path d="M391.424 938.688a48.896 48.896 0 0 1-49.92-49.728V212.928c0-24.832 18.304-44.8 41.6-49.728l497.344-77.888a49.984 49.984 0 0 1 39.936 11.648c11.648 9.92 16.64 23.168 16.64 38.08V812.8c0 28.16-21.632 49.664-49.92 49.664a48.896 48.896 0 0 1-49.92-49.728V193.024l-397.568 61.312v634.624c1.664 28.16-21.568 49.728-48.192 49.728z" fill="#010101" p-id="9777"></path><path d="M888.768 862.464H632.576a48.896 48.896 0 0 1-49.92-49.728v-142.464c0-28.16 21.696-49.728 49.92-49.728h256.192c28.288 0 49.92 21.504 49.92 49.728v142.464a51.072 51.072 0 0 1-49.92 49.728z m-206.272-99.456h156.352v-43.072h-156.352v43.072zM391.424 938.688H135.232a48.896 48.896 0 0 1-49.92-49.728v-142.464c0-28.16 21.632-49.728 49.92-49.728h256.192c28.288 0 49.92 21.504 49.92 49.728v142.464a49.92 49.92 0 0 1-49.92 49.728z m-206.272-99.456h156.352v-43.072H185.152v43.072z" fill="#010101" p-id="9778"></path></svg>