<svg xmlns="http://www.w3.org/2000/svg" xmlns:xlink="http://www.w3.org/1999/xlink" width="65" height="65.0067138671875" viewBox="0 0 65 65.0067138671875" fill="none">
<path d="M53.12 21.2517C52.4388 20.989 51.7523 20.7449 51.06 20.5211C51.1763 19.9872 51.285 19.4544 51.38 18.9363C52.9395 10.4277 51.9222 3.56957 48.44 1.31267C45.1012 -0.850947 39.6345 1.41467 34.12 6.80881C33.5765 7.34146 33.049 7.88697 32.53 8.44979C32.1828 8.07557 31.8295 7.70787 31.47 7.34831C25.6905 1.58074 19.8985 -0.849545 16.42 1.41382C13.0843 3.58417 12.096 10.0295 13.5 18.0933C13.6397 18.8921 13.7944 19.6864 13.97 20.4761C13.15 20.738 12.3573 21.0111 11.6 21.3079C4.824 23.9632 0.5 28.1299 0.5 32.4463C0.5 36.9042 5.1425 41.368 12.2 44.0792C12.7723 44.2981 13.3488 44.5105 13.93 44.6974C13.7413 45.5479 13.5763 46.3988 13.43 47.26C12.0915 55.1839 13.1333 61.4795 16.46 63.6361C19.896 65.8632 25.6647 63.5672 31.28 58.05C31.7353 57.6013 32.185 57.141 32.62 56.6675C33.182 57.277 33.7588 57.8702 34.35 58.4434C39.7895 63.7041 45.1565 65.8323 48.48 63.6698C51.9128 61.4362 53.0285 54.6739 51.58 46.4508C51.4658 45.8065 51.3418 45.1661 51.2 44.5288C51.605 44.3939 52.0025 44.2574 52.39 44.1129C59.727 41.3809 64.5 36.9637 64.5 32.4463C64.5 28.1142 60.0322 23.9261 53.12 21.2517ZM51.53 41.1906C51.1797 41.3205 50.8162 41.4508 50.45 41.5728C49.64 38.6907 48.5477 35.624 47.21 32.4575C48.4865 29.3666 49.5428 26.3404 50.33 23.4771C50.9847 23.6901 51.6175 23.9146 52.23 24.1515C58.1525 26.4432 61.77 29.8356 61.77 32.4463C61.77 35.2269 57.865 38.8312 51.53 41.1906ZM48.9 47.0465C49.5405 50.6825 49.6343 53.9737 49.21 56.5439C48.829 58.8533 48.058 60.3892 47.11 61.006C45.0933 62.3182 40.7817 60.616 36.13 56.1168C35.58 55.5835 35.0428 55.031 34.52 54.4646C36.3235 52.2479 38.131 49.6726 39.89 46.8104C42.984 46.5019 45.8993 45.993 48.55 45.3043C48.6808 45.8967 48.7998 46.4786 48.9 47.0465ZM22.32 60.7812C20.3495 61.5632 18.7787 61.5871 17.83 60.9723C15.8112 59.6637 14.9753 54.6096 16.12 47.8332C16.2561 47.0324 16.4046 46.2305 16.58 45.4392C19.2015 46.0911 22.1087 46.5615 25.21 46.8441C26.981 49.6448 28.8312 52.2217 30.7 54.4758C30.3027 54.9077 29.8958 55.325 29.48 55.7346C26.9967 58.1742 24.513 59.9107 22.32 60.7812ZM13.09 41.1794C9.96925 39.9804 7.3865 38.4176 5.62 36.7173C4.0325 35.1896 3.23 33.677 3.23 32.4463C3.23 29.8269 6.70525 26.4783 12.5 24.2077C13.2032 23.9323 13.9462 23.676 14.71 23.4321C15.511 26.36 16.5623 29.418 17.83 32.5137C16.5457 35.6552 15.4788 38.7677 14.67 41.7301C14.1395 41.5593 13.6124 41.3792 13.09 41.1794ZM16.18 17.4976C14.9773 10.589 15.7797 5.37436 17.79 4.06636C19.931 2.67322 24.6597 4.66093 29.65 9.64118C29.9755 9.96668 30.2952 10.3029 30.61 10.6415C28.7505 12.8858 26.9153 15.4442 25.16 18.2282C22.15 18.5418 19.269 19.0372 16.62 19.7118C16.4567 18.9773 16.3101 18.2405 16.18 17.4976ZM43.79 25.163C43.1642 23.9482 42.5117 22.7498 41.84 21.5664C43.882 21.8566 45.8428 22.2419 47.68 22.7128C47.1285 24.7 46.4393 26.7758 45.63 28.9058C45.0385 27.6442 44.426 26.397 43.79 25.163ZM32.53 12.8332C33.791 14.3688 35.0578 16.0871 36.3 17.9472C33.7788 17.8134 31.2515 17.8145 28.73 17.9472C29.9735 16.1042 31.2493 14.3865 32.53 12.8332ZM21.2 25.1855C20.572 26.4096 19.9665 27.65 19.39 28.9058C18.594 26.7834 17.9163 24.6943 17.36 22.6791C19.186 22.2199 21.131 21.84 23.16 21.5551C22.4808 22.7459 21.8288 23.9603 21.2 25.1855ZM23.22 43.551C21.1238 43.2879 19.1455 42.93 17.32 42.4832C17.885 40.432 18.5868 38.3007 19.4 36.1328C19.9788 37.3894 20.5793 38.6283 21.21 39.8531C21.8585 41.112 22.5305 42.3486 23.22 43.551ZM32.61 52.2616C31.314 50.6903 30.0222 48.9499 28.76 47.0802C29.9855 47.1341 31.2302 47.1701 32.5 47.1701C33.8045 47.1701 35.0908 47.1324 36.36 47.0689C35.1138 48.9724 33.8625 50.7117 32.61 52.2616ZM45.66 36.0204C46.5155 38.2122 47.2275 40.3322 47.8 42.3483C45.9445 42.8243 43.941 43.2101 41.83 43.4948C42.5065 42.2893 43.1668 41.0653 43.8 39.8307C44.444 38.5755 45.0665 37.3065 45.66 36.0204ZM41.43 38.2908C40.4603 40.1841 39.437 42.0471 38.36 43.8657C36.4087 44.021 34.4562 44.0905 32.5 44.0905C30.5082 44.0905 28.5755 44.0241 26.71 43.8881C25.6045 42.0735 24.5601 40.2165 23.58 38.3133C22.6043 36.42 21.6949 34.4846 20.85 32.5137C21.6927 30.5423 22.5977 28.6086 23.57 26.7141C24.5418 24.819 25.573 22.9684 26.67 21.1617C28.5732 20.9999 30.5275 20.9145 32.5 20.9145C34.4815 20.9145 36.4372 20.9988 38.34 21.1617C39.426 22.9656 40.4502 24.8173 41.42 26.7028C42.3952 28.5932 43.316 30.5114 44.18 32.4687C43.3247 34.4463 42.4082 36.3866 41.43 38.2908ZM47.07 3.97644C49.213 5.36565 50.0465 10.9717 48.7 18.3181C48.6138 18.7872 48.5153 19.2611 48.41 19.7456C45.7545 19.0566 42.8787 18.5466 39.86 18.2282C38.1015 15.4135 36.2793 12.8568 34.45 10.6415C34.9295 10.122 35.4183 9.61626 35.92 9.12416C40.645 4.50274 45.058 2.67238 47.07 3.97644ZM32.5 26.0172C35.6562 26.0172 38.22 28.8988 38.22 32.4463C38.22 35.9938 35.6562 38.8641 32.5 38.8641C29.3438 38.8641 26.79 35.9938 26.79 32.4463C26.79 28.8988 29.3438 26.0172 32.5 26.0172Z" stroke="rgba(0, 0, 0, 1)" stroke-width="1"      fill="#000000" >
</path>
</svg>
