<svg xmlns="http://www.w3.org/2000/svg" xmlns:xlink="http://www.w3.org/1999/xlink" width="64" height="64" viewBox="0 0 64 64" fill="none">
<g  clip-path="url(#clip-path-a3NcoY_j_itnFpupt1qV2)">
<path d="M32.4999 17.7035L18.25 -0.31604L4 17.7035L32.4999 17.7035Z"   fill="#1C1C1C" >
</path>
<path d="M60.9945 17.7075L46.7554 -0.31604L32.5 17.7075L60.9945 17.7075Z"   fill="#666666" >
</path>
<path d="M18.8695 -0.31604L33.1195 17.7035L47.3694 -0.31604L18.8695 -0.31604Z"   fill="#383838" >
</path>
<path d="M4 18.2289L18.25 36.2484L32.4999 18.2289L4 18.2289Z"   fill="#383838" >
</path>
<path d="M32.5 46.6644L46.75 64.6839L60.9999 46.6644L32.5 46.6644Z"   fill="#1C1C1C" >
</path>
<path d="M4 46.6644L18.25 64.6839L32.4999 46.6644L4 46.6644Z"   fill="#666666" >
</path>
<path d="M47.3694 64.6839L33.1195 46.6644L18.8695 64.6839L47.3694 64.6839Z"   fill="#383838" >
</path>
<path d="M60.9999 47.3752L46.75 29.3557L32.5 47.3752L60.9999 47.3752Z"   fill="#383838" >
</path>
</g>
<defs>
<clipPath id="clip-path-a3NcoY_j_itnFpupt1qV2">
<path d="M0 64L64 64L64 0L0 0L0 64Z" fill="white"/>
</clipPath>
</defs>
</svg>
